<?xml version="1.0" encoding="UTF-8"?>
<svg id="Layer_2" data-name="Layer 2" xmlns="http://www.w3.org/2000/svg" viewBox="0 0 412.92 223.34">
  <defs>
    <style>
      .cls-1 {
        fill: #fff;
      }

      .cls-2 {
        fill: #1a294e;
      }

      .cls-3 {
        fill: #911a1a;
      }
    </style>
  </defs>
  <g id="Layer_1-2" data-name="Layer 1">
    <g>
      <path d="M314.61,168.32c-14.92,16.81-80.28,20.59-104.42,25.49-33.92,6.88-55.99,16.95-92.57,13.12-19.55-2.05-61.37-9.88-61.4-35.41-.02-20.28,22.35-18.89,36.11-22.46,23.34-6.05,51.5-27.94,69.71-43.89,9.7-8.49,33.95-38.33,43.02-41.33,7.48-2.47,17.3,1.06,19.47,9.25,2.9,10.96-14.02,15.95,6.15,23.02,8.16,2.86,21.91,4.97,29.59.44,9.98-5.9,13.47-36.23,27.64-23.92,3.69,3.2,15.67,32.88,17.27,38.96,1.33,5.08.99,16.89,1.34,17.72,1.08,2.57,8.13,8.49,10.08,11.35,6,8.78,5,19.76-2,27.66ZM78.81,190.07c33.1,10.9,65.1,11.22,98.98,3.96,33.12-7.1,61.56-11.99,94.89-17.59,20.54-3.45,56.37-11.76,31.64-38.04-4.96,4.95-10.94,8.39-17.66,10.41-17.08,5.13-36.07,6.18-53.76,11.48-33.01,9.89-63.93,28.57-99.5,30.97-16.56,1.12-31.28-1.32-47.24-2.34-1.5-.1-7.03-.83-7.35,1.16Z"/>
      <path d="M211.52,1.12c1.09,1.09-4.62,16.87-5.6,19.7-1.18,3.4-8.41,23.56-9.73,24.01-25.12,1.37-51.33-1.31-76.32.16-6.25.37-17.48,1.29-22.74,4.25-8.46,4.76-11.11,22.2-1.76,26.98,11.43,5.84,42.47.89,56.98,2.63,7.01.84,11.62,4.63,17.55,7.77l-.71,2.32-48.26,38.21c-23.68-11.38-49.53,4.86-69.59-18.14C17.53,70.26,63.83,1.12,110.85,1.12h100.66Z"/>
      <path d="M246.39,74.23c2.12.49,2.67-1.19,3.93-2.24,26.5-21.9,51.08-46.56,75.94-70.28l58.46-1.71c.51,1.94-.78,2.25-1.67,3.38-2.48,3.15-7.07,7.24-10.11,10.16-23.26,22.37-48.61,42.87-72.01,65.18-2.77-8.8-10.72-18.12-21.06-16.65-16.41,2.32-14.4,25.13-24.77,29.3-6.73,2.71-18.88.23-25.09-3.64.28-8.47,3.58-12.49-.29-21.01-4.55-10.02-16.01-12.88-26.06-10.5L223.83.53l45.74-.48,2.65,1.7-25.82,72.47Z"/>
      <path class="cls-2" d="M412.85,132.73c1.91,1.68-35.51,26.81-38.34,28.57-68.4,42.67-183.6,75.77-263.1,56.34-8.39-2.05-18.53-4.7-25.86-9.01,12.19.95,24.29,4.32,36.56,5.06,80.86,4.82,175.6-18.06,246.89-55.64l43.84-25.32Z"/>
      <path d="M50.68,158.59c-3.11,12.22-3.85,21.76,4.47,32.09l14.65,11.77c-15.91.4-31.93-.48-47.84-.03-6.36.18-13.42,2.19-20.23,1.18-1.65-.25-1.81.66-1.69-1.71l15.78-43.28h34.87Z"/>
      <path class="cls-1" d="M78.81,190.07c.33-1.99,5.85-1.25,7.35-1.16,15.96,1.02,30.67,3.46,47.24,2.34,35.57-2.4,66.49-21.08,99.5-30.97,17.69-5.3,36.68-6.35,53.76-11.48,6.71-2.01,12.69-5.45,17.66-10.41,24.74,26.28-11.09,34.59-31.64,38.04-33.33,5.59-61.77,10.49-94.89,17.59-33.89,7.26-65.89,6.94-98.98-3.96ZM301.49,150.72c-29.02,11.01-61.32,10.9-89.61,24.54l-16.11,8.06c14.57-3.11,28.93-7.04,43.61-9.8,15.23-2.87,46.42-3.63,57.51-14.47,1.1-1.07,5.56-7.4,4.6-8.32Z"/>
      <path class="cls-3" d="M301.49,150.72c.96.93-3.5,7.25-4.6,8.32-11.09,10.84-42.28,11.6-57.51,14.47-14.67,2.77-29.03,6.69-43.61,9.8l16.11-8.06c28.28-13.64,60.58-13.53,89.61-24.54Z"/>
      <path class="cls-1" d="M124.36,140.03c-.38.01-.75.02-1.1-.02.43-.08.79-.08,1.1.02Z"/>
      <path class="cls-1" d="M211.97,112.12c-1.43.35-2.88.65-4.35.9,1.88-.87,3.33-1.16,4.35-.9Z"/>
    </g>
  </g>
</svg>