<?xml version="1.0" encoding="UTF-8"?>
<svg id="Layer_2" data-name="Layer 2" xmlns="http://www.w3.org/2000/svg" viewBox="0 0 409.07 243.87">
  <defs>
    <style>
      .cls-1 {
        fill: #fff;
      }

      .cls-2 {
        fill: #1a294e;
      }

      .cls-3 {
        fill: #911a1a;
      }
    </style>
  </defs>
  <g id="Layer_1-2" data-name="Layer 1">
    <g>
      <path class="cls-1" d="M293.22,122.7c-10.88,12.26-58.52,15.01-76.12,18.58-24.73,5.02-40.82,12.35-67.48,9.57-14.25-1.49-44.73-7.2-44.76-25.81-.02-14.78,16.29-13.77,26.32-16.37,17.01-4.41,37.54-20.37,50.82-31.99,7.07-6.19,24.75-27.94,31.36-30.13,5.45-1.8,12.61.77,14.19,6.74,2.12,7.99-10.22,11.62,4.49,16.78,5.95,2.09,15.97,3.63,21.57.32,7.28-4.3,9.82-26.41,20.15-17.44,2.69,2.33,11.42,23.96,12.59,28.4.97,3.7.72,12.31.98,12.92.79,1.87,5.93,6.19,7.35,8.27,4.38,6.4,3.65,14.41-1.46,20.16ZM121.33,138.55c24.12,7.95,47.45,8.18,72.15,2.89s44.87-8.74,69.17-12.82c14.98-2.51,41.09-8.57,23.06-27.73-3.62,3.61-7.98,6.12-12.87,7.59-12.45,3.74-26.29,4.5-39.19,8.37-24.06,7.21-46.6,20.83-72.53,22.58-12.07.81-22.8-.96-34.43-1.71-1.09-.07-5.12-.61-5.36.84Z"/>
      <path class="cls-1" d="M218.07.82c.79.8-3.37,12.3-4.08,14.36-.86,2.48-6.13,17.17-7.1,17.5-18.31,1-37.42-.96-55.63.12-4.56.27-12.75.94-16.58,3.1-6.17,3.47-8.1,16.18-1.28,19.67,8.33,4.26,30.96.65,41.54,1.92,5.11.61,8.47,3.38,12.79,5.66l-.52,1.69-35.18,27.85c-17.27-8.29-36.11,3.54-50.73-13.22C76.66,51.22,110.42.82,144.69.82h73.38Z"/>
      <path class="cls-1" d="M243.49,54.11c1.54.36,1.94-.87,2.87-1.63,19.32-15.97,37.24-33.94,55.36-51.23l42.61-1.24c.37,1.41-.57,1.64-1.22,2.47-1.81,2.29-5.15,5.27-7.37,7.41-16.96,16.31-35.43,31.25-52.49,47.51-2.02-6.41-7.81-13.21-15.35-12.14-11.96,1.69-10.5,18.32-18.06,21.36-4.9,1.98-13.76.17-18.29-2.66.2-6.17,2.61-9.11-.21-15.31-3.32-7.31-11.67-9.39-19-7.65L227.05.39l33.34-.35,1.93,1.24-18.82,52.83Z"/>
      <path class="cls-2" d="M364.83,96.75c1.39,1.23-25.88,19.54-27.95,20.83-49.86,31.11-133.84,55.23-191.79,41.07-6.12-1.49-13.51-3.42-18.85-6.57,8.89.69,17.71,3.15,26.65,3.69,58.95,3.51,128-13.17,179.97-40.56l31.96-18.46Z"/>
      <path class="cls-1" d="M267.27,191.86l-13.32,49.82-11.29,1.02c.93-6.31-2.96-1.33-6.33-.2-6.23,2.09-15.34.63-16.58-6.82-3.04-18.39,12.18-37.38,30.71-26.62l5.29-16.82,11.51-.37ZM239.99,215c-8.45,1.72-11.43,18.87-2.6,19.46,1.77.12,6.36-1.85,7.28-3.3.51-.81,3.68-11.66,3.72-12.77.14-4.01-5.44-3.99-8.4-3.38Z"/>
      <path class="cls-1" d="M45,204.07c-1.64,1.39-18.06-4.61-23.31.06-8.8,7.83,11.02,9.5,15.23,11.87,8.45,4.76,5.1,16.41-1.29,21.75-10.07,8.41-23.89,5.75-35.63,3.28l1.65-9.8c5.88,1.52,25.41,7.33,26.89-2.26,1.35-8.72-19.6-3.33-21.2-16.19-2.39-19.18,22.63-22.09,36.29-18.26,5.35,1.5,1.5,5.42,1.37,9.55Z"/>
      <path class="cls-1" d="M289.81,242.68l-7.8-18.04c-1.87-.34-1.3.12-1.82,1.05-1.7,3.04-2.9,15.43-4.69,16.61l-10.15.25-1.29-1.21,13.84-49.12,11.52-.38-7.37,28.69c.79.97,15.71-13.94,16.8-13.94h13.53l-18.63,16.8,9.26,17.61-.88,1.67h-12.3Z"/>
      <path class="cls-1" d="M100.83,115.6c-2.27,8.91-2.81,15.86,3.26,23.39l10.68,8.58c-11.6.29-23.27-.35-34.87-.03-4.63.13-9.79,1.6-14.75.86-1.2-.18-1.32.48-1.23-1.25l11.51-31.55h25.42Z"/>
      <path class="cls-1" d="M129.8,239.13c-5.8-5.82-3.04-17.15,1.17-23.28,10.73-15.58,43.93-14.68,36.65,10.41-4.13,14.23-26.91,23.82-37.83,12.86ZM148.18,214.17c-10.76,1.79-13.26,26.83,1.33,19.39,6.33-3.23,11.14-21.47-1.33-19.39Z"/>
      <path class="cls-1" d="M208.04,241.67c-1.16,1.39-11.41,1.88-12.04-.32-1.61-5.56,13.16-27.04.34-26.62-11.6.38-9.7,19.55-14.67,27.2l-11.15.75,9.96-35.96,10.55-.12v4.1c4.32-1.82,6.8-4.64,11.91-4.93,22.22-1.22,6.63,24.4,5.11,35.89Z"/>
      <path class="cls-1" d="M84.25,226.92c-2.04,2.1-7.27.09-9.28.15s-3.74.88-5.66.88c-4.03,0-14.76-2.91-10.32,4.32,4.04,6.59,20.58-.22,21.35.58.73,8.86-6.39,10-13.63,10.55-18.3,1.37-25.24-10.75-16.87-26.7,5.46-10.41,27.24-15.97,34.61-5.58,2.23,3.15,2.19,13.36-.19,15.81ZM74.59,220.55c2.55-11.91-12.83-8.87-13.94,0h13.94Z"/>
      <path class="cls-1" d="M377.13,206.61c.37,1.59-.58,1.58-1.38,2.31-5.45,4.96-10.79,10.02-16.29,14.93l7.01,18.01c-2.95-.39-5.7.91-8.6.9-6.72-.03-5.29-5.86-7.8-10.73-1.68-1.22-9.74,9.8-12.04,10.49-2.31.69-9.75.71-11.72-1.07-.34-1.59,15.98-14.02,16.89-16.76,1.53-4.62-5.26-13.04-5.41-18.07h11.89l4.93,9.84c1.64.39,9.83-9.84,10.65-9.84h11.89Z"/>
      <path class="cls-1" d="M372.23,241.84c0-1.82.44-8.46,2.11-8.97,3.22,2.09,19.45,4.27,19.85-.42.47-5.51-17.74-1.86-17.04-13.03.91-14.45,21.34-14.91,31.58-11.2.97,1.28-.38,7.96-1.65,8.08-3.64-1.18-17.09-5.11-17.69.6-.43,4.04,9.08,4.11,12.34,5.69,6.16,2.99,5.12,11.32.73,15.51-7.52,7.18-20.99,5.4-30.24,3.75Z"/>
      <path class="cls-1" d="M127.07,207.44l-2.43,8.68c-9.39-2.21-19.4-3.32-21.81,8.48-2.48,12.19,9.03,11.19,16.85,7.43l-1.83,8.82c-14.86,5.92-32.23,2.4-27.46-17.21,4.13-16.97,21.73-20.36,36.67-16.21Z"/>
      <path class="cls-1" d="M329.58,206.61l-8.6,34.45c-4,1.71-8.59,2.24-12.72.8l9.91-33.94c1.9-2.6,8.31-.79,11.41-1.3Z"/>
      <path class="cls-1" d="M320.56,201.69c-1.02-8.85,5.07-13.47,13.16-9.29l-1.68,9.29h-11.48Z"/>
      <path d="M121.33,138.55c.24-1.45,4.27-.91,5.36-.84,11.63.75,22.36,2.52,34.43,1.71,25.93-1.75,48.47-15.36,72.53-22.58,12.89-3.86,26.74-4.63,39.19-8.37,4.89-1.47,9.25-3.98,12.87-7.59,18.03,19.16-8.08,25.22-23.06,27.73-24.3,4.08-45.03,7.65-69.17,12.82s-48.03,5.06-72.15-2.89ZM283.66,109.87c-21.16,8.03-44.7,7.95-65.32,17.89l-11.74,5.87c10.62-2.27,21.09-5.13,31.79-7.14,11.1-2.09,33.84-2.65,41.92-10.55.8-.78,4.05-5.39,3.35-6.07Z"/>
      <path class="cls-3" d="M283.66,109.87c.7.68-2.55,5.29-3.35,6.07-8.09,7.91-30.82,8.46-41.92,10.55-10.7,2.02-21.16,4.88-31.79,7.14l11.74-5.87c20.62-9.94,44.16-9.86,65.32-17.89Z"/>
      <path class="cls-1" d="M154.54,102.08c-.28,0-.55.02-.8-.02.31-.06.57-.06.8.02Z"/>
      <path class="cls-1" d="M218.4,81.73c-1.04.25-2.1.48-3.17.66,1.37-.63,2.43-.84,3.17-.66Z"/>
    </g>
  </g>
</svg>